<?xml version="1.0" encoding="UTF-8"?>
<svg width="176px" height="43px" viewBox="0 0 176 43" version="1.1" xmlns="http://www.w3.org/2000/svg" xmlns:xlink="http://www.w3.org/1999/xlink">
    <!-- Generator: Sketch 51.2 (57519) - http://www.bohemiancoding.com/sketch -->
    <title>Logo Black Copy</title>
    <desc>Created with Sketch.</desc>
    <defs></defs>
    <g id="Admin" stroke="none" stroke-width="1" fill="none" fill-rule="evenodd">
        <g id="10-uam" transform="translate(-32.000000, -29.000000)">
            <g id="Logo-Black-Copy" transform="translate(32.000000, 29.000000)">
                <g id="Group-8" transform="translate(49.000000, 12.000000)" fill="#414241">
                    <g id="Group-15-Copy">
                        <path d="M0.0582471418,10.168523 L0.0582471418,0.798345505 L4.48594695,0.798345505 L4.48594695,10.0727938 C4.48594695,12.4809263 5.63852163,13.6256133 7.40062269,13.6256133 C9.18560258,13.6256133 10.3377456,12.5292424 10.3377456,10.1920038 L10.3377456,0.798345505 L14.7658771,0.798345505 L14.7658771,10.0488615 C14.7658771,15.4137634 11.851633,17.7979635 7.35529672,17.7979635 C2.88227094,17.7979635 0.0582471418,15.3902826 0.0582471418,10.168523" id="Fill-1"></path>
                        <path d="M17.4509012,4.58917859 L21.7434865,4.58917859 L21.7434865,6.40126102 C22.5347484,5.3279194 23.6644443,4.30289395 25.4036665,4.30289395 C28.0019238,4.30289395 29.5607055,6.11497638 29.5607055,9.0478135 L29.5607055,17.4882433 L25.2909991,17.4882433 L25.2909991,10.5022659 C25.2909991,9.07129426 24.5903891,8.30862114 23.5509135,8.30862114 C22.5118696,8.30862114 21.7434865,9.07129426 21.7434865,10.5022659 L21.7434865,17.4882433 L17.4509012,17.4882433 L17.4509012,4.58917859 Z" id="Fill-3"></path>
                        <polygon id="Fill-5" points="32.2235847 3.25167843 36.4937228 3.25167843 36.4937228 0.0826790613 32.2235847 0.0826790613"></polygon>
                        <polygon id="Fill-7" points="32.2235847 17.4882433 36.4937228 17.4882433 36.4937228 4.58917859 32.2235847 4.58917859"></polygon>
                        <path d="M48.1047256,11.0980902 L48.1047256,11.0506771 C48.1047256,9.45308237 46.9979086,8.11783998 45.4844528,8.11783998 C43.9252394,8.11783998 42.9315215,9.42869851 42.9315215,11.003264 L42.9315215,11.0506771 C42.9315215,12.623888 44.0158914,13.9591304 45.5293471,13.9591304 C47.0885605,13.9591304 48.1047256,12.6478203 48.1047256,11.0980902 M38.7744825,11.0980902 L38.7744825,11.0506771 C38.7744825,7.37864762 41.6209534,4.30266818 45.5293471,4.30266818 C49.4381725,4.30266818 52.2621963,7.33078299 52.2621963,11.003264 L52.2621963,11.0506771 C52.2621963,14.7227066 49.4152936,17.7982345 45.4844528,17.7982345 C41.5980746,17.7982345 38.7744825,14.7701196 38.7744825,11.0980902" id="Fill-8"></path>
                        <path d="M54.404906,4.58917859 L58.6974912,4.58917859 L58.6974912,6.40126102 C59.4883215,5.3279194 60.618449,4.30289395 62.3576713,4.30289395 C64.9559286,4.30289395 66.515142,6.11497638 66.515142,9.0478135 L66.515142,17.4882433 L62.2450039,17.4882433 L62.2450039,10.5022659 C62.2450039,9.07129426 61.5443939,8.30862114 60.5053499,8.30862114 C59.4658744,8.30862114 58.6974912,9.07129426 58.6974912,10.5022659 L58.6974912,17.4882433 L54.404906,17.4882433 L54.404906,4.58917859 Z" id="Fill-9"></path>
                        <path d="M76.2673483,10.6928665 L73.5831875,10.6928665 L73.5831875,13.7688459 L76.3122426,13.7688459 C77.6681366,13.7688459 78.4140726,13.2202089 78.4140726,12.2425966 L78.4140726,12.1951835 C78.4140726,11.2884649 77.7359097,10.6928665 76.2673483,10.6928665 Z M77.7812357,5.94839846 C77.7812357,5.01819916 77.0806257,4.51787837 75.7925048,4.51787837 L73.5831875,4.51787837 L73.5831875,7.45026393 L75.680269,7.45026393 C77.0132842,7.45026393 77.7812357,6.9734239 77.7812357,5.99581153 L77.7812357,5.94839846 Z M69.3139127,0.798435816 L76.8414772,0.798435816 C78.5116313,0.798435816 79.8450782,1.33623551 80.800377,2.25875841 C81.8933804,3.31448946 82.4312486,5.41330808 81.8130887,7.08586061 C81.5130739,7.89730146 80.8750569,8.41478127 80.1200558,8.76202557 C82.0375602,9.37342841 83.2000634,10.5736564 83.2000634,12.8390981 L83.2000634,12.8865112 C83.2000634,15.7475514 80.9859976,17.4882884 77.2127185,17.4882884 L69.3139127,17.4882884 L69.3139127,0.798435816 Z" id="Fill-10"></path>
                        <path d="M92.7389355,12.8145788 L92.7389355,12.2189803 C92.2869708,12.0284249 91.6770127,11.8848311 91.0446075,11.8848311 C89.8018126,11.8848311 89.0787554,12.505265 89.0787554,13.4824258 L89.0787554,13.5302904 C89.0787554,14.4126251 89.7111606,14.9368782 90.5922112,14.9368782 C91.8578849,14.9368782 92.7389355,14.1024081 92.7389355,12.8145788 M84.9670424,13.7926427 L84.9670424,13.7447781 C84.9670424,11.050361 86.8871368,9.6911863 89.7569183,9.6911863 C90.8861825,9.6911863 91.9929995,9.90612556 92.6940412,10.1919586 L92.6940412,9.97792249 C92.6940412,8.61874779 91.9027792,7.85562312 90.2533456,7.85562312 C88.966088,7.85562312 87.9719384,8.14190775 86.8651214,8.57088316 L85.9840708,5.40007758 C87.3615487,4.80357599 88.8305418,4.39853289 90.9315084,4.39853289 C93.123127,4.39853289 94.6145673,4.94671831 95.5858381,5.97174375 C96.5117829,6.92587537 96.8959745,8.26111776 96.8959745,10.0727486 L96.8959745,17.488153 L92.6711623,17.488153 L92.6711623,16.1289783 C91.812559,17.1065906 90.6608476,17.7744376 89.0563083,17.7744376 C86.7291434,17.7744376 84.9670424,16.343466 84.9670424,13.7926427" id="Fill-11"></path>
                        <path d="M99.4235664,4.58917859 L103.716152,4.58917859 L103.716152,6.40126102 C104.506982,5.3279194 105.637109,4.30289395 107.376332,4.30289395 C109.974589,4.30289395 111.533371,6.11497638 111.533371,9.0478135 L111.533371,17.4882433 L107.263664,17.4882433 L107.263664,10.5022659 C107.263664,9.07129426 106.563054,8.30862114 105.52401,8.30862114 C104.484535,8.30862114 103.716152,9.07129426 103.716152,10.5022659 L103.716152,17.4882433 L99.4235664,17.4882433 L99.4235664,4.58917859 Z" id="Fill-12"></path>
                        <polygon id="Fill-13" points="114.08328 0.0824532848 118.375866 0.0824532848 118.375866 8.90444541 121.69718 4.58895282 126.554397 4.58895282 122.307138 9.73891546 126.667496 17.4880175 121.922947 17.4880175 119.483114 13.0772472 118.375866 14.4364219 118.375866 17.4880175 114.08328 17.4880175"></polygon>
                    </g>
                    <path d="M6.56268854,28.3093923 C6.56268854,28.574587 6.5050366,28.8066288 6.389731,29.0055249 C6.27442539,29.2044209 6.10926038,29.3701651 5.89423101,29.5027624 C5.67920164,29.6353598 5.420547,29.7348063 5.11825933,29.801105 C4.81597166,29.8674036 4.48096716,29.9005525 4.11323577,29.9005525 L1,29.9005525 L1,24.0994475 L4.03844332,24.0994475 C4.71157874,24.0994475 5.23979515,24.2348053 5.62310837,24.5055249 C6.0064216,24.7762444 6.19807534,25.1408817 6.19807534,25.5994475 L6.19807534,25.6160221 C6.19807534,25.7817688 6.17470293,25.9281762 6.12795742,26.0552486 C6.0812119,26.1823211 6.01888548,26.2969608 5.94097629,26.3991713 C5.8630671,26.5013817 5.77269379,26.5911598 5.66985366,26.6685083 C5.56701352,26.7458567 5.45638413,26.8121544 5.33796216,26.8674033 C5.71815901,26.9944758 6.01732583,27.167126 6.23547157,27.3853591 C6.45361731,27.6035923 6.56268854,27.9060754 6.56268854,28.2928177 L6.56268854,28.3093923 Z M4.76766972,25.8314917 L4.76766972,25.8149171 C4.76766972,25.621546 4.68664537,25.4737574 4.52459425,25.371547 C4.36254313,25.2693365 4.12881906,25.218232 3.82341502,25.218232 L2.40235846,25.218232 L2.40235846,26.4447514 L3.72992446,26.4447514 C4.04779397,26.4447514 4.30021596,26.3964093 4.48719803,26.2997238 C4.67418009,26.2030382 4.76766972,26.0469624 4.76766972,25.8314917 Z M5.13228291,28.1519337 L5.13228291,28.1353591 C5.13228291,27.941988 5.04814225,27.7886746 4.87985839,27.6754144 C4.71157454,27.5621541 4.44045461,27.5055249 4.06649049,27.5055249 L2.40235846,27.5055249 L2.40235846,28.781768 L4.11323577,28.781768 C4.43110528,28.781768 4.68041095,28.7306635 4.86116028,28.628453 C5.04190961,28.5262426 5.13228291,28.3674044 5.13228291,28.1519337 Z M16.4664556,27.3729282 C16.4664556,27.8149193 16.3994547,28.1988934 16.2654509,28.5248619 C16.1314471,28.8508304 15.9397933,29.1229271 15.6904839,29.3411602 C15.4411745,29.5593934 15.1388914,29.7223752 14.7836254,29.8301105 C14.4283595,29.9378458 14.0325868,29.9917127 13.5962953,29.9917127 C12.7174796,29.9917127 12.0256563,29.7762452 11.5208048,29.3453039 C11.0159532,28.9143625 10.7635312,28.2707225 10.7635312,27.4143646 L10.7635312,24.0994475 L12.2032859,24.0994475 L12.2032859,27.3812155 C12.2032859,27.856356 12.3279387,28.2140872 12.5772481,28.4544199 C12.8265576,28.6947526 13.1724692,28.8149171 13.6149934,28.8149171 C14.0575176,28.8149171 14.4034292,28.6988962 14.6527387,28.4668508 C14.9020481,28.2348055 15.0267009,27.8867427 15.0267009,27.4226519 L15.0267009,24.0994475 L16.4664556,24.0994475 L16.4664556,27.3729282 Z M25.7812321,28.1850829 C25.7812321,28.4723771 25.722022,28.7278994 25.6036,28.9516575 C25.485178,29.1754155 25.320013,29.3632589 25.1081,29.5151934 C24.896187,29.6671278 24.643765,29.7831488 24.3508265,29.8632597 C24.0578879,29.9433706 23.7337905,29.9834254 23.3785246,29.9834254 C22.8799058,29.9834254 22.3906434,29.9074593 21.9107227,29.7555249 C21.4308021,29.6035904 20.9945172,29.3701673 20.6018549,29.0552486 L21.452619,28.1519337 C21.7517903,28.3674044 22.0587479,28.5386734 22.373501,28.6657459 C22.6882542,28.7928183 23.0326076,28.8563536 23.4065718,28.8563536 C23.7057431,28.8563536 23.937909,28.8080115 24.1030765,28.711326 C24.268244,28.6146404 24.3508265,28.4806638 24.3508265,28.3093923 L24.3508265,28.2928177 C24.3508265,28.2099443 24.3336867,28.1367406 24.2994066,28.0732044 C24.2651266,28.0096682 24.1996839,27.9502765 24.1030765,27.8950276 C24.0064691,27.8397787 23.8724673,27.7845307 23.701067,27.7292818 C23.5296668,27.6740329 23.3068499,27.6160224 23.0326095,27.5552486 C22.7022745,27.4834251 22.4031077,27.4033154 22.1351001,27.3149171 C21.8670925,27.2265189 21.639601,27.117404 21.452619,26.9875691 C21.2656369,26.8577342 21.120728,26.6961336 21.0178879,26.5027624 C20.9150477,26.3093913 20.8636284,26.0690622 20.8636284,25.781768 L20.8636284,25.7651934 C20.8636284,25.4999987 20.9197222,25.2610508 21.0319114,25.0483425 C21.1441007,24.8356343 21.3014749,24.6519345 21.5040388,24.4972376 C21.7066027,24.3425407 21.9481176,24.2237573 22.2285907,24.140884 C22.5090638,24.0580106 22.8175795,24.0165746 23.1541472,24.0165746 C23.6340679,24.0165746 24.0750273,24.0801099 24.4770387,24.2071823 C24.8790502,24.3342548 25.2483342,24.5165734 25.5849019,24.7541436 L24.8369774,25.7154696 C24.5440388,25.5386731 24.2573373,25.3991718 23.9768642,25.2969613 C23.6963911,25.1947509 23.4159222,25.1436464 23.1354491,25.1436464 C22.854976,25.1436464 22.6446244,25.1919885 22.5043878,25.288674 C22.3641513,25.3853596 22.2940341,25.5055241 22.2940341,25.6491713 L22.2940341,25.6657459 C22.2940341,25.759669 22.3142901,25.8411599 22.3548029,25.910221 C22.3953157,25.9792821 22.4685492,26.0414362 22.5745057,26.0966851 C22.6804622,26.151934 22.8253712,26.2044196 23.0092369,26.2541436 C23.1931026,26.3038677 23.4252685,26.3618781 23.7057416,26.4281768 C24.0360765,26.5055252 24.3305689,26.592541 24.5892274,26.6892265 C24.8478859,26.7859121 25.0660284,26.901933 25.2436613,27.0372928 C25.4212943,27.1726526 25.5552961,27.3314908 25.6456708,27.5138122 C25.7360454,27.6961335 25.7812321,27.9143634 25.7812321,28.1685083 L25.7812321,28.1850829 Z M31.6555558,29.9005525 L30.2158012,29.9005525 L30.2158012,24.0994475 L31.6555558,24.0994475 L31.6555558,29.9005525 Z M42.2231059,29.9005525 L40.9983795,29.9005525 L37.8290494,26.2127072 L37.8290494,29.9005525 L36.4079928,29.9005525 L36.4079928,24.0994475 L37.7355588,24.0994475 L40.8020493,27.6712707 L40.8020493,24.0994475 L42.2231059,24.0994475 L42.2231059,29.9005525 Z M51.8931465,29.9005525 L46.9100995,29.9005525 L46.9100995,24.0994475 L51.8464012,24.0994475 L51.8464012,25.2348066 L48.3405051,25.2348066 L48.3405051,26.4116022 L51.4256937,26.4116022 L51.4256937,27.5469613 L48.3405051,27.5469613 L48.3405051,28.7651934 L51.8931465,28.7651934 L51.8931465,29.9005525 Z M61.0209419,28.1850829 C61.0209419,28.4723771 60.9617318,28.7278994 60.8433098,28.9516575 C60.7248878,29.1754155 60.5597228,29.3632589 60.3478098,29.5151934 C60.1358968,29.6671278 59.8834748,29.7831488 59.5905363,29.8632597 C59.2975977,29.9433706 58.9735003,29.9834254 58.6182344,29.9834254 C58.1196156,29.9834254 57.6303532,29.9074593 57.1504325,29.7555249 C56.6705119,29.6035904 56.234227,29.3701673 55.8415647,29.0552486 L56.6923288,28.1519337 C56.9915001,28.3674044 57.2984577,28.5386734 57.6132108,28.6657459 C57.927964,28.7928183 58.2723174,28.8563536 58.6462816,28.8563536 C58.9454529,28.8563536 59.1776188,28.8080115 59.3427863,28.711326 C59.5079538,28.6146404 59.5905363,28.4806638 59.5905363,28.3093923 L59.5905363,28.2928177 C59.5905363,28.2099443 59.5733965,28.1367406 59.5391165,28.0732044 C59.5048364,28.0096682 59.4393937,27.9502765 59.3427863,27.8950276 C59.2461789,27.8397787 59.1121771,27.7845307 58.9407768,27.7292818 C58.7693766,27.6740329 58.5465597,27.6160224 58.2723193,27.5552486 C57.9419843,27.4834251 57.6428175,27.4033154 57.3748099,27.3149171 C57.1068023,27.2265189 56.8793108,27.117404 56.6923288,26.9875691 C56.5053467,26.8577342 56.3604378,26.6961336 56.2575977,26.5027624 C56.1547575,26.3093913 56.1033382,26.0690622 56.1033382,25.781768 L56.1033382,25.7651934 C56.1033382,25.4999987 56.159432,25.2610508 56.2716213,25.0483425 C56.3838105,24.8356343 56.5411847,24.6519345 56.7437486,24.4972376 C56.9463125,24.3425407 57.1878274,24.2237573 57.4683005,24.140884 C57.7487736,24.0580106 58.0572893,24.0165746 58.393857,24.0165746 C58.8737777,24.0165746 59.3147371,24.0801099 59.7167485,24.2071823 C60.11876,24.3342548 60.488044,24.5165734 60.8246117,24.7541436 L60.0766872,25.7154696 C59.7837486,25.5386731 59.4970471,25.3991718 59.216574,25.2969613 C58.9361009,25.1947509 58.655632,25.1436464 58.3751589,25.1436464 C58.0946858,25.1436464 57.8843342,25.1919885 57.7440976,25.288674 C57.6038611,25.3853596 57.5337439,25.5055241 57.5337439,25.6491713 L57.5337439,25.6657459 C57.5337439,25.759669 57.5539999,25.8411599 57.5945127,25.910221 C57.6350255,25.9792821 57.708259,26.0414362 57.8142156,26.0966851 C57.9201721,26.151934 58.065081,26.2044196 58.2489467,26.2541436 C58.4328124,26.3038677 58.6649783,26.3618781 58.9454514,26.4281768 C59.2757863,26.5055252 59.5702787,26.592541 59.8289372,26.6892265 C60.0875957,26.7859121 60.3057382,26.901933 60.4833711,27.0372928 C60.6610041,27.1726526 60.7950059,27.3314908 60.8853806,27.5138122 C60.9757552,27.6961335 61.0209419,27.9143634 61.0209419,28.1685083 L61.0209419,28.1850829 Z M70.1206901,28.1850829 C70.1206901,28.4723771 70.06148,28.7278994 69.943058,28.9516575 C69.824636,29.1754155 69.659471,29.3632589 69.447558,29.5151934 C69.235645,29.6671278 68.983223,29.7831488 68.6902845,29.8632597 C68.3973459,29.9433706 68.0732485,29.9834254 67.7179826,29.9834254 C67.2193638,29.9834254 66.7301014,29.9074593 66.2501807,29.7555249 C65.7702601,29.6035904 65.3339752,29.3701673 64.9413129,29.0552486 L65.792077,28.1519337 C66.0912483,28.3674044 66.3982059,28.5386734 66.712959,28.6657459 C67.0277122,28.7928183 67.3720656,28.8563536 67.7460298,28.8563536 C68.0452011,28.8563536 68.277367,28.8080115 68.4425345,28.711326 C68.607702,28.6146404 68.6902845,28.4806638 68.6902845,28.3093923 L68.6902845,28.2928177 C68.6902845,28.2099443 68.6731447,28.1367406 68.6388647,28.0732044 C68.6045846,28.0096682 68.5391419,27.9502765 68.4425345,27.8950276 C68.3459271,27.8397787 68.2119253,27.7845307 68.040525,27.7292818 C67.8691248,27.6740329 67.6463079,27.6160224 67.3720675,27.5552486 C67.0417325,27.4834251 66.7425657,27.4033154 66.4745581,27.3149171 C66.2065505,27.2265189 65.979059,27.117404 65.792077,26.9875691 C65.6050949,26.8577342 65.460186,26.6961336 65.3573459,26.5027624 C65.2545057,26.3093913 65.2030864,26.0690622 65.2030864,25.781768 L65.2030864,25.7651934 C65.2030864,25.4999987 65.2591802,25.2610508 65.3713694,25.0483425 C65.4835587,24.8356343 65.6409329,24.6519345 65.8434968,24.4972376 C66.0460607,24.3425407 66.2875756,24.2237573 66.5680487,24.140884 C66.8485218,24.0580106 67.1570375,24.0165746 67.4936052,24.0165746 C67.9735259,24.0165746 68.4144853,24.0801099 68.8164967,24.2071823 C69.2185082,24.3342548 69.5877922,24.5165734 69.9243599,24.7541436 L69.1764354,25.7154696 C68.8834968,25.5386731 68.5967953,25.3991718 68.3163222,25.2969613 C68.0358491,25.1947509 67.7553802,25.1436464 67.4749071,25.1436464 C67.194434,25.1436464 66.9840824,25.1919885 66.8438458,25.288674 C66.7036093,25.3853596 66.6334921,25.5055241 66.6334921,25.6491713 L66.6334921,25.6657459 C66.6334921,25.759669 66.6537481,25.8411599 66.6942609,25.910221 C66.7347737,25.9792821 66.8080072,26.0414362 66.9139638,26.0966851 C67.0199203,26.151934 67.1648292,26.2044196 67.3486949,26.2541436 C67.5325606,26.3038677 67.7647265,26.3618781 68.0451996,26.4281768 C68.3755345,26.5055252 68.6700269,26.592541 68.9286854,26.6892265 C69.1873439,26.7859121 69.4054864,26.901933 69.5831193,27.0372928 C69.7607523,27.1726526 69.8947541,27.3314908 69.9851288,27.5138122 C70.0755034,27.6961335 70.1206901,27.9143634 70.1206901,28.1685083 L70.1206901,28.1850829 Z M86.1605545,28.9640884 C85.9922706,29.1243102 85.8177566,29.2679552 85.6370073,29.3950276 C85.456258,29.5221001 85.2583716,29.631215 85.0433422,29.7223757 C84.8283129,29.8135364 84.5930306,29.8825965 84.3374885,29.929558 C84.0819463,29.9765196 83.7952448,30 83.4773753,30 C82.9974547,30 82.5518208,29.9226527 82.1404602,29.7679558 C81.7290997,29.6132589 81.3738391,29.401935 81.0746678,29.1339779 C80.7754965,28.8660208 80.5417724,28.5497256 80.3734886,28.1850829 C80.2052047,27.8204402 80.121064,27.4309413 80.121064,27.0165746 L80.121064,27 C80.121064,26.5856333 80.2052047,26.1975156 80.3734886,25.8356354 C80.5417724,25.4737551 80.7754965,25.1560787 81.0746678,24.8825967 C81.3738391,24.6091147 81.732216,24.3936472 82.1498093,24.2361878 C82.5674026,24.0787285 83.0286181,24 83.5334696,24 C83.8388737,24 84.1177844,24.0220992 84.3702102,24.0662983 C84.622636,24.1104975 84.8516855,24.1712703 85.0573658,24.2486188 C85.2630461,24.3259672 85.4531417,24.419889 85.6276582,24.5303867 C85.8021748,24.6408845 85.9642235,24.7624303 86.1138092,24.8950276 L85.1976017,25.8314917 C84.9420595,25.6270708 84.6818467,25.4668514 84.4169554,25.3508287 C84.1520642,25.234806 83.8544555,25.1767956 83.5241206,25.1767956 C83.2498802,25.1767956 82.9959,25.2237564 82.7621725,25.3176796 C82.5284449,25.4116027 82.3274422,25.5414356 82.1591583,25.7071823 C81.9908745,25.872929 81.859989,26.064916 81.766498,26.2831492 C81.6730069,26.5013823 81.6262621,26.7348054 81.6262621,26.9834254 L81.6262621,27 C81.6262621,27.24862 81.6730069,27.4834243 81.766498,27.7044199 C81.859989,27.9254155 81.9893163,28.1187837 82.1544838,28.2845304 C82.3196513,28.4502771 82.5190958,28.5814912 82.7528234,28.6781768 C82.986551,28.7748624 83.2436475,28.8232044 83.5241206,28.8232044 C83.8980847,28.8232044 84.2143913,28.7624315 84.4730498,28.640884 C84.7317083,28.5193364 84.9888048,28.3535922 85.2443469,28.1436464 L86.1605545,28.9640884 Z M95.9614819,29.9005525 L94.5217272,29.9005525 L94.5217272,27.5718232 L91.8665952,27.5718232 L91.8665952,29.9005525 L90.4268405,29.9005525 L90.4268405,24.0994475 L91.8665952,24.0994475 L91.8665952,26.3950276 L94.5217272,26.3950276 L94.5217272,24.0994475 L95.9614819,24.0994475 L95.9614819,29.9005525 Z M105.631523,29.9005525 L100.648475,29.9005525 L100.648475,24.0994475 L105.584777,24.0994475 L105.584777,25.2348066 L102.078881,25.2348066 L102.078881,26.4116022 L105.16407,26.4116022 L105.16407,27.5469613 L102.078881,27.5469613 L102.078881,28.7651934 L105.631523,28.7651934 L105.631523,29.9005525 Z M115.778365,28.9640884 C115.610081,29.1243102 115.435567,29.2679552 115.254818,29.3950276 C115.074069,29.5221001 114.876182,29.631215 114.661153,29.7223757 C114.446123,29.8135364 114.210841,29.8825965 113.955299,29.929558 C113.699757,29.9765196 113.413055,30 113.095186,30 C112.615265,30 112.169631,29.9226527 111.758271,29.7679558 C111.34691,29.6132589 110.99165,29.401935 110.692478,29.1339779 C110.393307,28.8660208 110.159583,28.5497256 109.991299,28.1850829 C109.823015,27.8204402 109.738875,27.4309413 109.738875,27.0165746 L109.738875,27 C109.738875,26.5856333 109.823015,26.1975156 109.991299,25.8356354 C110.159583,25.4737551 110.393307,25.1560787 110.692478,24.8825967 C110.99165,24.6091147 111.350027,24.3936472 111.76762,24.2361878 C112.185213,24.0787285 112.646429,24 113.15128,24 C113.456684,24 113.735595,24.0220992 113.988021,24.0662983 C114.240447,24.1104975 114.469496,24.1712703 114.675176,24.2486188 C114.880857,24.3259672 115.070952,24.419889 115.245469,24.5303867 C115.419985,24.6408845 115.582034,24.7624303 115.73162,24.8950276 L114.815412,25.8314917 C114.55987,25.6270708 114.299657,25.4668514 114.034766,25.3508287 C113.769875,25.234806 113.472266,25.1767956 113.141931,25.1767956 C112.867691,25.1767956 112.613711,25.2237564 112.379983,25.3176796 C112.146255,25.4116027 111.945253,25.5414356 111.776969,25.7071823 C111.608685,25.872929 111.4778,26.064916 111.384309,26.2831492 C111.290818,26.5013823 111.244073,26.7348054 111.244073,26.9834254 L111.244073,27 C111.244073,27.24862 111.290818,27.4834243 111.384309,27.7044199 C111.4778,27.9254155 111.607127,28.1187837 111.772294,28.2845304 C111.937462,28.4502771 112.136906,28.5814912 112.370634,28.6781768 C112.604362,28.7748624 112.861458,28.8232044 113.141931,28.8232044 C113.515895,28.8232044 113.832202,28.7624315 114.09086,28.640884 C114.349519,28.5193364 114.606615,28.3535922 114.862158,28.1436464 L115.778365,28.9640884 Z M126,29.9005525 L124.270425,29.9005525 L122.241679,27.4309392 L121.484406,28.1270718 L121.484406,29.9005525 L120.044651,29.9005525 L120.044651,24.0994475 L121.484406,24.0994475 L121.484406,26.6353591 L124.139538,24.0994475 L125.878462,24.0994475 L123.213981,26.5607735 L126,29.9005525 Z" id="BUSINESS-CHECK"></path>
                </g>
                <path d="M27.4019086,22.2834495 C25.6405816,22.0582661 24.8732578,21.9675078 24.8732578,21.9675078 L24.8732578,15.7848101 C25.3083786,15.8909803 28.1731406,16.5776613 28.1731406,16.5776613 C29.9279539,16.9197174 30.8212108,18.1779191 30.8212108,19.6857062 C30.8212108,21.1939214 29.4593958,22.5467343 27.4019086,22.2834495 M34.8155415,25.2974703 C34.8155415,25.2974703 36.8860157,23.2225553 36.8860157,19.3147617 C36.8860157,16.0528438 34.7049865,12.4379006 30.8625366,11.0770595 L18.2314056,6.56038637 L18.1907213,28.6503189 C18.1907213,28.6503189 18.1947013,31.8493876 14.6542877,32.5255737 C12.2839883,32.9784445 9.97383078,30.8157189 9.97383078,28.1279128 C9.97692632,28.1283586 9.98665516,10.7186853 9.97692632,3.58374143 L0,0 L0,29.0809028 C0,39.4688498 9.3498583,43.8629447 15.0938544,42.8609235 C21.9504761,41.6650058 25.0424786,36.3254985 25.0424786,30.5464926 L25.0424786,28.494756 L29.8799236,28.6614624 C31.4798758,28.6614624 32.6694477,30.0677689 32.6694477,31.5418277 C32.6694477,32.8491802 31.763781,34.2563781 29.8998235,34.4190729 L27.2416389,34.6236671 C26.8153388,36.3874562 25.8919833,38.8220825 23.8184136,41.2549259 L31.6072351,39.866449 C34.7439019,39.2945659 38.3913328,36.5497052 38.3913328,32.0152025 C38.3913328,30.0833698 37.7434804,27.2556017 34.8155415,25.2974703" id="Fill-14" fill="#FF8000"></path>
            </g>
        </g>
    </g>
</svg>