<svg xmlns="http://www.w3.org/2000/svg" viewBox="0 0 498.91 122.11"><defs><style>.cls-1{fill:#4c4948;}.cls-2{fill:#ff9500;}</style></defs><title>Asset 2</title><g id="Layer_2" data-name="Layer 2"><g id="图层_1" data-name="图层 1"><path class="cls-1" d="M135.54,76.69V50.43h12.71v26c0,6.75,3.3,10,8.36,10S165,83.31,165,76.76V50.43h12.71V76.36c0,15-8.36,21.72-21.27,21.72S135.54,91.33,135.54,76.69Z"/><path class="cls-1" d="M185.46,61.05h12.32v5.08c2.27-3,5.51-5.88,10.5-5.88,7.46,0,11.93,5.08,11.93,13.3V97.21H208V77.63c0-4-2-6.15-5-6.15s-5.18,2.14-5.18,6.15V97.21H185.46Z"/><rect class="cls-1" x="227.85" y="48.42" width="12.26" height="8.88"/><rect class="cls-1" x="227.85" y="61.05" width="12.26" height="36.16"/><path class="cls-1" d="M246.65,79.3v-.13A18.93,18.93,0,0,1,266,60.25c11.22,0,19.32,8.49,19.32,18.78v.14c0,10.29-8.17,18.91-19.45,18.91S246.65,89.59,246.65,79.3Zm26.78,0v-.13c0-4.48-3.17-8.22-7.52-8.22s-7.32,3.67-7.32,8.08v.14c0,4.41,3.11,8.15,7.45,8.15S273.43,83.64,273.43,79.3Z"/><path class="cls-1" d="M291.51,61.05h12.33v5.08c2.26-3,5.51-5.88,10.5-5.88,7.46,0,11.93,5.08,11.93,13.3V97.21H314V77.63c0-4-2-6.15-5-6.15s-5.18,2.14-5.18,6.15V97.21H291.51Z"/><path class="cls-1" d="M334.3,50.43h21.61a16,16,0,0,1,11.36,4.09,13.32,13.32,0,0,1,2.91,13.53,8.6,8.6,0,0,1-4.86,4.7c5.5,1.71,8.84,5.08,8.84,11.43v.13c0,8-6.36,12.9-17.19,12.9H334.3Zm24.3,14.43c0-2.6-2-4-5.7-4h-6.34v8.22h6c3.83,0,6-1.33,6-4.07Zm-4.34,13.3h-7.7v8.62h7.83c3.89,0,6-1.53,6-4.27v-.14C360.42,79.83,358.47,78.16,354.26,78.16Z"/><path class="cls-1" d="M379.23,86.85v-.13c0-7.55,5.51-11.36,13.75-11.36a24.48,24.48,0,0,1,8.42,1.4v-.6c0-3.81-2.27-6-7-6a25.87,25.87,0,0,0-9.72,2l-2.53-8.88a34.16,34.16,0,0,1,14.2-2.81c6.29,0,10.57,1.54,13.35,4.41,2.66,2.67,3.76,6.42,3.76,11.49V97.21H401.34V93.4A13.33,13.33,0,0,1,391,98C384.29,98,379.23,94,379.23,86.85Zm22.3-2.74V82.44a13.22,13.22,0,0,0-4.86-.94C393.1,81.5,391,83.24,391,86v.14c0,2.47,1.81,3.94,4.34,3.94C399,90.06,401.53,87.72,401.53,84.11Z"/><path class="cls-1" d="M420.72,61.05H433v5.08c2.27-3,5.51-5.88,10.5-5.88,7.46,0,11.93,5.08,11.93,13.3V97.21H443.22V77.63c0-4-2-6.15-5-6.15S433,73.62,433,77.63V97.21H420.72Z"/><path class="cls-1" d="M462.79,48.42h12.32V73.15l9.53-12.1h13.95L486.4,75.49l12.51,21.72H485.29l-7-12.36-3.18,3.81v8.55H462.79Z"/><path class="cls-2" d="M97.54,71.84s5.8-5.9,5.8-17A25.5,25.5,0,0,0,86.46,31.46L51.08,18.63,51,81.36a11.55,11.55,0,0,1-9.9,11c-6.64,1.29-13.12-4.85-13.12-12.49,0,0,0-49.43,0-69.69L0,0V82.58c0,29.5,26.19,42,42.29,39.13,19.21-3.39,27.87-18.56,27.87-35V80.92l13.55.47c4.48,0,7.82,4,7.82,8.18a8.12,8.12,0,0,1-7.76,8.17l-7.45.58a45.54,45.54,0,0,1-9.59,18.83l21.82-3.94c8.79-1.63,19-9.42,19-22.3A22.43,22.43,0,0,0,97.54,71.84ZM77.37,64.28c-5-.67-7.21-.93-7.21-.93V45.07l9.41,2.34a8.92,8.92,0,0,1,7.56,9.19C87.13,61.06,83.24,65.06,77.37,64.28Z"/></g></g></svg>